<?xml version="1.0" encoding="iso-8859-1"?>
<!-- Generator: Adobe Illustrator 18.0.0, SVG Export Plug-In . SVG Version: 6.00 Build 0)  -->
<!DOCTYPE svg PUBLIC "-//W3C//DTD SVG 1.1//EN" "http://www.w3.org/Graphics/SVG/1.1/DTD/svg11.dtd">
<svg xmlns="http://www.w3.org/2000/svg" xmlns:xlink="http://www.w3.org/1999/xlink" version="1.1" id="Capa_1" x="0px" y="0px" viewBox="0 0 296.514 296.514" style="enable-background:new 0 0 296.514 296.514;" xml:space="preserve" width="512px" height="512px">
<g>
	<path d="M209.521,13.251c-23.354,0-45.25,9.378-61.264,25.251c-16.013-15.873-37.91-25.251-61.264-25.251   C39.025,13.251,0,52.276,0,100.244c0,38.814,14.157,73.228,44.554,108.3c18.824,21.72,61.053,52.391,84.548,68.739   c5.729,3.986,12.44,5.979,19.154,5.979s13.429-1.994,19.159-5.98c23.496-16.351,65.725-47.021,84.545-68.738   c30.396-35.071,44.554-69.484,44.554-108.3C296.514,52.276,257.488,13.251,209.521,13.251z M146.636,224.685   c-40.825,0-73.92-33.095-73.92-73.921c0-40.825,33.095-73.92,73.92-73.92s73.92,33.095,73.92,73.92   C220.556,191.589,187.461,224.685,146.636,224.685z" fill="#91DC5A"/>
	<path d="M102.098,130.765c-11.046,0-20,8.954-20,20s8.954,20,20,20h89.076c11.046,0,20-8.954,20-20s-8.954-20-20-20H102.098z" fill="#91DC5A"/>
</g>
<g>
</g>
<g>
</g>
<g>
</g>
<g>
</g>
<g>
</g>
<g>
</g>
<g>
</g>
<g>
</g>
<g>
</g>
<g>
</g>
<g>
</g>
<g>
</g>
<g>
</g>
<g>
</g>
<g>
</g>
</svg>
